<mxfile host="app.diagrams.net" modified="2023-07-24T07:21:40.522Z" agent="Mozilla/5.0 (Windows NT 10.0; Win64; x64) AppleWebKit/537.36 (KHTML, like Gecko) Chrome/114.0.0.0 Safari/537.36" etag="5nx4f6YrnYIJq-lQZ_rf" version="21.6.2" type="github">
  <diagram id="C5RBs43oDa-KdzZeNtuy" name="Page-1">
    <mxGraphModel dx="1434" dy="764" grid="1" gridSize="10" guides="1" tooltips="1" connect="1" arrows="1" fold="1" page="1" pageScale="1" pageWidth="827" pageHeight="1169" math="0" shadow="0">
      <root>
        <mxCell id="WIyWlLk6GJQsqaUBKTNV-0" />
        <mxCell id="WIyWlLk6GJQsqaUBKTNV-1" parent="WIyWlLk6GJQsqaUBKTNV-0" />
        <mxCell id="vbVdVaXQlWFoF76VwblY-26" style="edgeStyle=orthogonalEdgeStyle;rounded=0;orthogonalLoop=1;jettySize=auto;html=1;exitX=0.5;exitY=1;exitDx=0;exitDy=0;entryX=0.5;entryY=0;entryDx=0;entryDy=0;" parent="WIyWlLk6GJQsqaUBKTNV-1" source="WIyWlLk6GJQsqaUBKTNV-3" target="vbVdVaXQlWFoF76VwblY-6" edge="1">
          <mxGeometry relative="1" as="geometry" />
        </mxCell>
        <mxCell id="WIyWlLk6GJQsqaUBKTNV-3" value="机台通过Kafka推送原始特征数据" style="rounded=1;whiteSpace=wrap;html=1;fontSize=12;glass=0;strokeWidth=2;shadow=0;fillColor=#dae8fc;strokeColor=#6c8ebf;" parent="WIyWlLk6GJQsqaUBKTNV-1" vertex="1">
          <mxGeometry x="370" y="390" width="120" height="40" as="geometry" />
        </mxCell>
        <mxCell id="WIyWlLk6GJQsqaUBKTNV-5" value="-1：无法判断" style="edgeStyle=orthogonalEdgeStyle;rounded=0;html=1;jettySize=auto;orthogonalLoop=1;fontSize=11;endArrow=classic;endFill=1;endSize=8;strokeWidth=1;shadow=0;labelBackgroundColor=none;" parent="WIyWlLk6GJQsqaUBKTNV-1" source="WIyWlLk6GJQsqaUBKTNV-6" target="WIyWlLk6GJQsqaUBKTNV-7" edge="1">
          <mxGeometry y="10" relative="1" as="geometry">
            <mxPoint as="offset" />
          </mxGeometry>
        </mxCell>
        <mxCell id="vbVdVaXQlWFoF76VwblY-9" value="1：有断线风险" style="edgeStyle=orthogonalEdgeStyle;rounded=0;orthogonalLoop=1;jettySize=auto;html=1;exitX=0;exitY=0.5;exitDx=0;exitDy=0;entryX=0.5;entryY=0;entryDx=0;entryDy=0;" parent="WIyWlLk6GJQsqaUBKTNV-1" source="WIyWlLk6GJQsqaUBKTNV-6" target="1bPf2rrk2R5TYcMOA0k4-1" edge="1">
          <mxGeometry relative="1" as="geometry">
            <mxPoint x="200" y="660" as="targetPoint" />
            <Array as="points">
              <mxPoint x="200" y="590" />
            </Array>
            <mxPoint as="offset" />
          </mxGeometry>
        </mxCell>
        <mxCell id="vbVdVaXQlWFoF76VwblY-11" style="edgeStyle=orthogonalEdgeStyle;rounded=0;orthogonalLoop=1;jettySize=auto;html=1;exitX=0.5;exitY=1;exitDx=0;exitDy=0;entryX=0.5;entryY=0;entryDx=0;entryDy=0;" parent="WIyWlLk6GJQsqaUBKTNV-1" source="WIyWlLk6GJQsqaUBKTNV-6" target="vbVdVaXQlWFoF76VwblY-24" edge="1">
          <mxGeometry relative="1" as="geometry">
            <mxPoint x="430" y="670" as="targetPoint" />
          </mxGeometry>
        </mxCell>
        <mxCell id="vbVdVaXQlWFoF76VwblY-13" value="0：无断线风险" style="edgeLabel;html=1;align=center;verticalAlign=middle;resizable=0;points=[];" parent="vbVdVaXQlWFoF76VwblY-11" vertex="1" connectable="0">
          <mxGeometry x="-0.2571" relative="1" as="geometry">
            <mxPoint as="offset" />
          </mxGeometry>
        </mxCell>
        <mxCell id="WIyWlLk6GJQsqaUBKTNV-6" value="断线算法结果为?" style="rhombus;whiteSpace=wrap;html=1;shadow=0;fontFamily=Helvetica;fontSize=12;align=center;strokeWidth=3;spacing=6;spacingTop=-4;fillColor=#f8cecc;strokeColor=#b85450;" parent="WIyWlLk6GJQsqaUBKTNV-1" vertex="1">
          <mxGeometry x="380" y="550" width="100" height="80" as="geometry" />
        </mxCell>
        <mxCell id="WIyWlLk6GJQsqaUBKTNV-7" value="&lt;b&gt;PLC不做任何动作，后台记录&lt;/b&gt;" style="rounded=1;whiteSpace=wrap;html=1;fontSize=12;glass=0;strokeWidth=2;shadow=0;fillColor=#dae8fc;strokeColor=#6c8ebf;" parent="WIyWlLk6GJQsqaUBKTNV-1" vertex="1">
          <mxGeometry x="600" y="790" width="120" height="40" as="geometry" />
        </mxCell>
        <mxCell id="WIyWlLk6GJQsqaUBKTNV-11" value="记录，并继续工艺流程" style="rounded=1;whiteSpace=wrap;html=1;fontSize=12;glass=0;strokeWidth=2;shadow=0;fillColor=#dae8fc;strokeColor=#6c8ebf;fontStyle=1" parent="WIyWlLk6GJQsqaUBKTNV-1" vertex="1">
          <mxGeometry x="140" y="790" width="120" height="40" as="geometry" />
        </mxCell>
        <mxCell id="vbVdVaXQlWFoF76VwblY-5" style="edgeStyle=orthogonalEdgeStyle;rounded=0;orthogonalLoop=1;jettySize=auto;html=1;exitX=0.5;exitY=1;exitDx=0;exitDy=0;entryX=0.5;entryY=0;entryDx=0;entryDy=0;endArrow=classic;endFill=1;" parent="WIyWlLk6GJQsqaUBKTNV-1" source="vbVdVaXQlWFoF76VwblY-2" target="vbVdVaXQlWFoF76VwblY-3" edge="1">
          <mxGeometry relative="1" as="geometry" />
        </mxCell>
        <mxCell id="vbVdVaXQlWFoF76VwblY-2" value="开始" style="rounded=1;whiteSpace=wrap;html=1;fillColor=#fff2cc;strokeColor=#d6b656;strokeWidth=3;fontStyle=1;fontSize=14;" parent="WIyWlLk6GJQsqaUBKTNV-1" vertex="1">
          <mxGeometry x="370" y="230" width="120" height="40" as="geometry" />
        </mxCell>
        <mxCell id="1bPf2rrk2R5TYcMOA0k4-0" style="edgeStyle=orthogonalEdgeStyle;rounded=0;orthogonalLoop=1;jettySize=auto;html=1;exitX=0.5;exitY=1;exitDx=0;exitDy=0;entryX=0.5;entryY=0;entryDx=0;entryDy=0;" edge="1" parent="WIyWlLk6GJQsqaUBKTNV-1" source="vbVdVaXQlWFoF76VwblY-3" target="WIyWlLk6GJQsqaUBKTNV-3">
          <mxGeometry relative="1" as="geometry" />
        </mxCell>
        <mxCell id="vbVdVaXQlWFoF76VwblY-3" value="检测到进刀位置为50" style="rounded=0;whiteSpace=wrap;html=1;fillColor=#dae8fc;strokeColor=#6c8ebf;strokeWidth=2;" parent="WIyWlLk6GJQsqaUBKTNV-1" vertex="1">
          <mxGeometry x="370" y="310" width="120" height="40" as="geometry" />
        </mxCell>
        <mxCell id="vbVdVaXQlWFoF76VwblY-27" style="edgeStyle=orthogonalEdgeStyle;rounded=0;orthogonalLoop=1;jettySize=auto;html=1;exitX=0.5;exitY=1;exitDx=0;exitDy=0;entryX=0.5;entryY=0;entryDx=0;entryDy=0;" parent="WIyWlLk6GJQsqaUBKTNV-1" source="vbVdVaXQlWFoF76VwblY-6" target="WIyWlLk6GJQsqaUBKTNV-6" edge="1">
          <mxGeometry relative="1" as="geometry">
            <mxPoint x="430" y="470" as="targetPoint" />
          </mxGeometry>
        </mxCell>
        <mxCell id="vbVdVaXQlWFoF76VwblY-6" value="算法计算结果0：无断线风险；1：有无异常/跳线断线风险" style="rounded=1;whiteSpace=wrap;html=1;fontSize=12;glass=0;strokeWidth=2;shadow=0;fillColor=#dae8fc;strokeColor=#6c8ebf;" parent="WIyWlLk6GJQsqaUBKTNV-1" vertex="1">
          <mxGeometry x="370" y="460" width="120" height="50" as="geometry" />
        </mxCell>
        <mxCell id="vbVdVaXQlWFoF76VwblY-24" value="记录，并正常继续工艺流程" style="rounded=1;whiteSpace=wrap;html=1;fontSize=12;glass=0;strokeWidth=2;shadow=0;fillColor=#dae8fc;strokeColor=#6c8ebf;fontStyle=1" parent="WIyWlLk6GJQsqaUBKTNV-1" vertex="1">
          <mxGeometry x="370" y="790" width="120" height="40" as="geometry" />
        </mxCell>
        <mxCell id="1bPf2rrk2R5TYcMOA0k4-2" style="edgeStyle=orthogonalEdgeStyle;rounded=0;orthogonalLoop=1;jettySize=auto;html=1;exitX=0.5;exitY=1;exitDx=0;exitDy=0;entryX=0.5;entryY=0;entryDx=0;entryDy=0;" edge="1" parent="WIyWlLk6GJQsqaUBKTNV-1" source="1bPf2rrk2R5TYcMOA0k4-1" target="WIyWlLk6GJQsqaUBKTNV-11">
          <mxGeometry relative="1" as="geometry" />
        </mxCell>
        <mxCell id="1bPf2rrk2R5TYcMOA0k4-1" value="前端提示，增加人工点检或工艺参数修改" style="rounded=1;whiteSpace=wrap;html=1;fontSize=12;glass=0;strokeWidth=2;shadow=0;fillColor=#dae8fc;strokeColor=#6c8ebf;" vertex="1" parent="WIyWlLk6GJQsqaUBKTNV-1">
          <mxGeometry x="140" y="680" width="120" height="60" as="geometry" />
        </mxCell>
      </root>
    </mxGraphModel>
  </diagram>
</mxfile>
